<svg width="118" height="56" viewBox="0 0 118 56" fill="none" xmlns="http://www.w3.org/2000/svg">
<rect x="1" y="1" width="116" height="54" stroke="black"/>
<rect x="1" y="1" width="116" height="54" rx="27" stroke="white" stroke-width="2"/>
<path d="M70.3983 15.1043L75.2148 23.8796L65.3535 23.9597C63.6184 24.1736 61.5055 24.6248 62.1035 29.5889C62.3612 31.7275 64.2403 32.5546 65.5007 32.7049L74.9614 32.262L70.1357 40.8621C69.4599 42.4745 68.8027 44.5327 73.4089 46.4778C75.3933 47.3158 77.0441 46.0952 77.8002 45.0757L82.3983 36.6042L87.3983 45.1042C88.4511 46.5 89.8983 48.1042 93.8983 45.1042C95.6216 43.8118 95.3983 41.7709 94.8983 40.6042L89.6872 32.8126L100.664 32.7995C101.969 32.2058 104.396 30.3353 103.664 27.6033C102.932 24.8712 100.806 24.2209 99.8343 24.2372L89.9004 24.1333L95.3383 14.5976C95.4707 13.17 95.0519 10.1346 92.3168 9.41384C89.5818 8.69308 87.9617 10.2161 87.4935 11.0677L82.8479 19.0695L77.3983 10.1043C76.2317 9.27097 73.3983 8.1043 71.3983 10.1043C69.3983 12.1043 69.8983 14.271 70.3983 15.1043Z" stroke="white" stroke-width="2" stroke-linejoin="round"/>
<path d="M23.3983 15.1043L28.2148 23.8796L18.3535 23.9597C16.6184 24.1736 14.5055 24.6248 15.1035 29.5889C15.3612 31.7275 17.2403 32.5546 18.5007 32.7049L27.9614 32.262L23.1357 40.8621C22.4599 42.4745 21.8027 44.5327 26.4089 46.4778C28.3933 47.3158 30.0441 46.0952 30.8002 45.0757L35.3983 36.6042L40.3983 45.1042C41.4511 46.5 42.8983 48.1042 46.8983 45.1042C48.6216 43.8118 48.3983 41.7709 47.8983 40.6042L42.6872 32.8126L53.6644 32.7995C54.9694 32.2058 57.3965 30.3353 56.6644 27.6033C55.9324 24.8712 53.806 24.2209 52.8343 24.2372L42.9004 24.1333L48.3383 14.5976C48.4707 13.17 48.0519 10.1346 45.3168 9.41384C42.5818 8.69308 40.9617 10.2161 40.4935 11.0677L35.8479 19.0695L30.3983 10.1043C29.2317 9.27097 26.3983 8.1043 24.3983 10.1043C22.3983 12.1043 22.8983 14.271 23.3983 15.1043Z" stroke="white" stroke-width="2" stroke-linejoin="round"/>
</svg>
