<svg width="147" height="131" viewBox="0 0 147 131" fill="none" xmlns="http://www.w3.org/2000/svg">
<path d="M29.387 22.3292C25.292 15.3929 27.5934 6.44906 34.5273 2.35262C41.4612 -1.74382 50.402 0.558359 54.497 7.49468L114.42 108.994C118.515 115.931 116.213 124.875 109.279 128.971C102.346 133.067 93.4048 130.765 89.3098 123.829L29.387 22.3292Z" fill="#FF00F5"/>
<path d="M89.5655 7.17003C93.6611 0.234047 102.602 -2.0674 109.536 2.02963C116.469 6.12666 118.77 15.0707 114.674 22.0067L54.7429 123.501C50.6473 130.437 41.7064 132.739 34.7728 128.642C27.8392 124.545 25.5386 115.601 29.6342 108.665L89.5655 7.17003Z" fill="#FF00F5"/>
<path d="M14.581 79.4993C6.52815 79.4993 3.52002e-07 72.9689 0 64.9133C-3.52002e-07 56.8576 6.52813 50.3272 14.581 50.3272L132.419 50.3272C140.472 50.3272 147 56.8576 147 64.9133C147 72.9689 140.472 79.4993 132.419 79.4993L14.581 79.4993Z" fill="#FF00F5"/>
</svg>
