<svg width="157" height="157" viewBox="0 0 157 157" fill="none" xmlns="http://www.w3.org/2000/svg">
<rect width="157" height="157" rx="38" fill="black"/>
<path d="M128.165 50.8667H93.7492V41H128.165V50.8667ZM136.652 100.2C134.478 106.599 126.676 115 111.572 115C96.4583 115 84.2159 106.47 84.2159 87.0033C84.2159 67.714 95.647 57.798 111.09 57.798C126.243 57.798 135.496 66.5892 137.517 79.6329C137.9 82.1292 138.053 85.4937 137.984 90.1903H98.5183C99.1575 106.031 115.643 106.529 121.076 100.2H136.652ZM98.8625 80.4667H123.273C122.757 72.8348 117.688 69.5196 111.095 69.5196C103.887 69.5196 99.8999 73.3084 98.8625 80.4667ZM51.7908 114.941H20V41.1036H54.1852C81.1086 41.5032 81.6199 67.9607 67.5584 75.1732C84.5748 81.3892 85.1451 114.941 51.7908 114.941ZM34.7498 70.6H52.371C64.7019 70.6 66.6587 55.8 50.837 55.8H34.7498V70.6ZM51.4221 85.4H34.7498V100.279H51.1762C66.1965 100.279 65.2771 85.4 51.4221 85.4Z" fill="#FF00FF"/>
</svg>
