<svg width="108" height="108" viewBox="0 0 108 108" fill="none" xmlns="http://www.w3.org/2000/svg">
<rect x="4" y="4.00024" width="100" height="100" rx="26" fill="#FF00FF"/>
<path d="M84.9159 37.1336H63.6245V31.0002H84.9159V37.1336ZM90.1658 67.8002C88.8214 71.7777 83.9943 77.0002 74.6504 77.0002C65.3004 77.0002 57.7268 71.698 57.7268 59.5969C57.7268 47.6062 64.7986 41.4422 74.3524 41.4422C83.7267 41.4422 89.451 46.907 90.7011 55.0153C90.9384 56.567 91.0327 58.6585 90.9901 61.578H66.5749C66.9703 71.425 77.1689 71.7348 80.5299 67.8002H90.1658ZM66.7878 55.5336H81.8895C81.5701 50.7894 78.4342 48.7286 74.3554 48.7286C69.8964 48.7286 67.4296 51.0838 66.7878 55.5336ZM37.6672 76.9634H18V31.0646H39.1485C55.8045 31.313 56.1208 47.7596 47.4217 52.243C57.9488 56.107 58.3016 76.9634 37.6672 76.9634ZM27.1249 49.4002H38.0261C45.6545 49.4002 46.8651 40.2002 37.0771 40.2002H27.1249V49.4002ZM37.4391 58.6002H27.1249V67.8493H37.287C46.5792 67.8493 46.0104 58.6002 37.4391 58.6002Z" fill="black"/>
</svg>
