<svg width="100" height="100" viewBox="0 0 100 100" fill="none" xmlns="http://www.w3.org/2000/svg">
<rect y="0.000244141" width="100" height="100" rx="26" fill="#FF00FF"/>
<path d="M76.0797 27.0002H24.3597C19.7504 27.0002 16 30.7398 16 35.3358V64.9929C16 69.5889 19.7504 73.3285 24.3597 73.3285H76.0797C80.6891 73.3285 84.4395 69.5889 84.4395 64.9929V35.3367C84.4404 30.7398 80.69 27.0002 76.0797 27.0002ZM71.9948 32.4383L50.2197 46.4266L28.4446 32.4383H71.9948ZM76.0797 67.8914H24.3597C22.7572 67.8914 21.4538 66.5908 21.4538 64.9938V35.4908L48.5372 52.8562C48.5736 52.8788 48.6127 52.8942 48.6499 52.9151C48.689 52.9368 48.729 52.9577 48.769 52.9776C48.979 53.0855 49.1953 53.1725 49.4162 53.2296C49.4389 53.2359 49.4617 53.2387 49.4844 53.2441C49.7271 53.3012 49.9725 53.3365 50.2179 53.3365H50.2197C50.2215 53.3365 50.2234 53.3365 50.2234 53.3365C50.4688 53.3365 50.7142 53.3021 50.9569 53.2441C50.9796 53.2387 51.0023 53.2359 51.0251 53.2296C51.2459 53.1725 51.4614 53.0855 51.6722 52.9776C51.7122 52.9577 51.7522 52.9368 51.7913 52.9151C51.8286 52.8942 51.8677 52.8788 51.904 52.8562L78.9875 35.4908V64.9929C78.9866 66.5908 77.6822 67.8914 76.0797 67.8914Z" fill="black"/>
</svg>
