<svg width="118" height="56" viewBox="0 0 118 56" fill="none" xmlns="http://www.w3.org/2000/svg">
<path fill-rule="evenodd" clip-rule="evenodd" d="M0 28C0 12.536 12.536 0 28 0H90C105.464 0 118 12.536 118 28C118 43.464 105.464 56 90 56H28C12.536 56 0 43.464 0 28ZM28 2C13.6406 2 2 13.6406 2 28C2 42.3594 13.6406 54 28 54H90C104.359 54 116 42.3594 116 28C116 13.6406 104.359 2 90 2H28ZM27.5799 10.0332C26.7017 9.91722 25.8327 10.0841 25.1054 10.8114C23.4909 12.4259 23.9443 14.0708 24.2558 14.5898C24.2624 14.6008 24.2687 14.6119 24.2749 14.6231L29.0914 23.3985C29.2607 23.707 29.2554 24.0819 29.0774 24.3855C28.8994 24.6891 28.5748 24.8767 28.2229 24.8796L18.4199 24.9592C17.5687 25.0673 16.9898 25.2166 16.6036 25.6544C16.2177 26.0919 15.809 27.0844 16.0964 29.4693C16.2683 30.8967 17.4939 31.5532 18.542 31.7019L27.9146 31.2631C28.2777 31.2461 28.6214 31.4274 28.8123 31.7366C29.0032 32.0459 29.0114 32.4344 28.8335 32.7513L24.0362 41.3007C23.7075 42.0932 23.5497 42.6699 23.7381 43.2225C23.9263 43.7746 24.585 44.6221 26.7979 45.5566C28.1272 46.1179 29.3092 45.3725 29.9571 44.5327L34.5195 36.1272C34.6914 35.8104 35.0206 35.6106 35.3811 35.6044C35.7416 35.5982 36.0775 35.7865 36.2603 36.0972L41.2308 44.5471C41.7499 45.2301 42.1687 45.6569 42.741 45.7724C43.3128 45.8878 44.3766 45.7455 46.2983 44.3042C47.4453 43.444 47.4045 42.0599 47.0124 41.0784L41.856 33.3686C41.6509 33.062 41.6313 32.6674 41.8049 32.342C41.9785 32.0165 42.3172 31.8131 42.686 31.8126L53.4338 31.7997C53.9558 31.5289 54.6373 31.0425 55.1352 30.3942C55.6747 29.6917 55.9647 28.8557 55.6985 27.8621C55.1075 25.6566 53.4563 25.2269 52.8511 25.2371C52.8462 25.2372 52.8412 25.2372 52.8363 25.2372C52.8321 25.2373 52.828 25.2372 52.8238 25.2372L42.8899 25.1332C42.5355 25.1295 42.2095 24.9384 42.0331 24.631C41.8567 24.3236 41.8562 23.9458 42.0317 23.6379L47.356 14.3015C47.38 13.7139 47.2961 12.8809 46.9804 12.1268C46.6384 11.3097 46.0567 10.643 45.062 10.3808C42.8541 9.79899 41.6614 11.019 41.3698 11.5495L41.3583 11.5698L36.7128 19.5716C36.5356 19.8767 36.2108 20.0659 35.858 20.0695C35.5052 20.073 35.1767 19.8904 34.9934 19.5889L29.6568 10.8096C29.1615 10.4915 28.3952 10.1409 27.5799 10.0332ZM27.8417 8.05041C29.1407 8.22197 30.2923 8.79967 30.9796 9.29057C31.0896 9.36918 31.1826 9.4693 31.2528 9.58488L35.8282 17.1118L39.6234 10.5747C40.2751 9.40149 42.3199 7.58993 45.5717 8.44686C47.312 8.9055 48.3073 10.1168 48.8253 11.3546C49.3312 12.5632 49.412 13.849 49.334 14.69C49.3209 14.8318 49.2775 14.9692 49.207 15.093L44.6117 23.1511L52.8325 23.2372C54.175 23.2214 56.7604 24.0979 57.6303 27.3445C58.0962 29.0829 57.5387 30.5482 56.7214 31.6123C55.9234 32.6515 54.8472 33.36 54.0785 33.7097C53.9488 33.7687 53.808 33.7993 53.6656 33.7995L44.5576 33.8104L48.7296 40.0483C48.7638 40.0995 48.7932 40.1537 48.8175 40.2103C49.3953 41.5586 49.7663 44.2033 47.4983 45.9042C45.4201 47.463 43.7603 48.0185 42.3452 47.7329C40.9432 47.4499 40.1177 46.3928 39.6 45.7064C39.577 45.6759 39.5558 45.6442 39.5364 45.6113L35.4333 38.636L31.6791 45.5527C31.6567 45.594 31.6314 45.6337 31.6034 45.6714C30.7296 46.8496 28.6315 48.5019 26.0198 47.399C23.6266 46.3884 22.3108 45.2342 21.845 43.8678C21.3835 42.514 21.8811 41.2685 22.2134 40.4756C22.2281 40.4404 22.2449 40.406 22.2636 40.3727L26.2069 33.3452L18.5474 33.7038C18.4923 33.7064 18.437 33.7044 18.3822 33.6979C16.9257 33.5242 14.4498 32.5231 14.1107 29.7085C13.8 27.1293 14.1487 25.4141 15.1036 24.3315C16.0498 23.2588 17.3779 23.0724 18.2312 22.9673C18.2691 22.9626 18.3073 22.9601 18.3454 22.9598L26.5327 22.8933L22.5299 15.6006C21.8466 14.4429 21.3182 11.7702 23.6912 9.3972C24.9638 8.12455 26.5115 7.87472 27.8417 8.05041ZM74.5799 10.0332C73.7018 9.91722 72.8327 10.0841 72.1054 10.8114C70.4909 12.4259 70.9443 14.0708 71.2558 14.5898C71.2624 14.6008 71.2688 14.6119 71.2749 14.6231L76.0914 23.3985C76.2607 23.707 76.2554 24.0819 76.0774 24.3855C75.8994 24.6891 75.5748 24.8767 75.2229 24.8796L65.4199 24.9592C64.5687 25.0673 63.9897 25.2166 63.6036 25.6544C63.2177 26.0919 62.809 27.0844 63.0964 29.4693C63.2683 30.8967 64.4939 31.5532 65.542 31.7019L74.9146 31.2631C75.2777 31.2461 75.6214 31.4274 75.8123 31.7366C76.0032 32.0459 76.0113 32.4344 75.8335 32.7513L71.0362 41.3007C70.7075 42.0932 70.5497 42.6699 70.7381 43.2225C70.9263 43.7746 71.585 44.6221 73.7979 45.5566C75.1272 46.1179 76.3093 45.3725 76.9572 44.5327L81.5194 36.1272C81.6914 35.8104 82.0206 35.6106 82.3811 35.6044C82.7416 35.5982 83.0775 35.7865 83.2603 36.0972L88.2308 44.5471C88.7499 45.2301 89.1687 45.6569 89.741 45.7724C90.3128 45.8878 91.3766 45.7455 93.2983 44.3042C94.4453 43.444 94.4045 42.0599 94.0124 41.0784L88.856 33.3686C88.6509 33.062 88.6313 32.6674 88.8049 32.342C88.9785 32.0165 89.3171 31.8131 89.686 31.8126L100.434 31.7997C100.956 31.5289 101.637 31.0425 102.135 30.3942C102.675 29.6917 102.965 28.8557 102.698 27.8621C102.108 25.6566 100.456 25.2269 99.8511 25.2371C99.842 25.2373 99.8329 25.2373 99.8238 25.2372L89.8899 25.1332C89.5355 25.1295 89.2095 24.9384 89.0331 24.631C88.8567 24.3236 88.8562 23.9458 89.0317 23.6379L94.356 14.3015C94.38 13.7139 94.2961 12.8809 93.9804 12.1268C93.6384 11.3097 93.0567 10.643 92.062 10.3808C89.8541 9.79899 88.6614 11.019 88.3698 11.5495L88.3583 11.5698L83.7128 19.5716C83.5356 19.8767 83.2108 20.0659 82.858 20.0695C82.5052 20.073 82.1767 19.8904 81.9934 19.5889L76.6568 10.8096C76.1615 10.4915 75.3952 10.1409 74.5799 10.0332ZM74.8417 8.05041C76.1407 8.22197 77.2923 8.79967 77.9796 9.29057C78.0896 9.36918 78.1826 9.4693 78.2528 9.58488L82.8282 17.1118L86.6233 10.575C87.2747 9.4018 89.3196 7.58985 92.5717 8.44686C94.312 8.9055 95.3073 10.1168 95.8253 11.3546C96.3312 12.5632 96.412 13.849 96.334 14.69C96.3208 14.8318 96.2775 14.9692 96.207 15.093L91.6117 23.1511L99.8325 23.2372C101.175 23.2214 103.76 24.0979 104.63 27.3445C105.096 29.0829 104.539 30.5482 103.721 31.6123C102.923 32.6515 101.847 33.36 101.078 33.7097C100.949 33.7687 100.808 33.7993 100.666 33.7995L91.5575 33.8104L95.7296 40.0483C95.7638 40.0995 95.7932 40.1537 95.8175 40.2103C96.3953 41.5586 96.7663 44.2033 94.4983 45.9042C92.4201 47.463 90.7603 48.0185 89.3452 47.7329C87.9432 47.4499 87.1177 46.3928 86.6 45.7064C86.577 45.6759 86.5557 45.6442 86.5364 45.6113L82.4333 38.636L78.6791 45.5527C78.6567 45.594 78.6314 45.6337 78.6034 45.6714C77.7296 46.8496 75.6315 48.5019 73.0198 47.399C70.6266 46.3884 69.3108 45.2342 68.845 43.8678C68.3835 42.514 68.8811 41.2685 69.2134 40.4756C69.2281 40.4404 69.2449 40.406 69.2636 40.3727L73.2069 33.3452L65.5474 33.7038C65.4923 33.7064 65.437 33.7044 65.3822 33.6979C63.9257 33.5242 61.4498 32.5231 61.1107 29.7085C60.8 27.1293 61.1487 25.4141 62.1036 24.3315C63.0498 23.2588 64.3779 23.0724 65.2312 22.9673C65.2691 22.9626 65.3073 22.9601 65.3454 22.9598L73.5327 22.8933L69.5299 15.6006C68.8466 14.4429 68.3182 11.7702 70.6912 9.3972C71.9638 8.12455 73.5115 7.87472 74.8417 8.05041Z" fill="white"/>
</svg>
