<svg width="157" height="157" viewBox="0 0 157 157" fill="none" xmlns="http://www.w3.org/2000/svg">
<rect width="157" height="157" rx="38" fill="black"/>
<path d="M119.052 43H38.9477C31.8086 43 26 48.8086 26 55.9477V102.014C26 109.153 31.8086 114.962 38.9477 114.962H119.052C126.191 114.962 132 109.153 132 102.014V55.9491C132.001 48.8086 126.193 43 119.052 43ZM112.726 51.4469L79 73.1751L45.2744 51.4469H112.726ZM119.052 106.516H38.9477C36.4657 106.516 34.4469 104.496 34.4469 102.016V56.1884L76.3941 83.1621C76.4505 83.1973 76.511 83.2213 76.5687 83.2536C76.6292 83.2874 76.6912 83.3198 76.7531 83.3508C77.0783 83.5183 77.4134 83.6535 77.7555 83.7422C77.7907 83.752 77.8259 83.7562 77.8611 83.7647C78.237 83.8534 78.6171 83.9083 78.9972 83.9083H79C79.0028 83.9083 79.0056 83.9083 79.0056 83.9083C79.3857 83.9083 79.7659 83.8548 80.1417 83.7647C80.1769 83.7562 80.2121 83.752 80.2473 83.7422C80.5894 83.6535 80.9231 83.5183 81.2497 83.3508C81.3116 83.3198 81.3736 83.2874 81.4341 83.2536C81.4918 83.2213 81.5524 83.1973 81.6087 83.1621L123.556 56.1884V102.014C123.555 104.496 121.534 106.516 119.052 106.516Z" fill="#FF00FF"/>
</svg>
