<svg width="495" height="495" viewBox="0 0 495 495" fill="none" xmlns="http://www.w3.org/2000/svg">
<path d="M476.283 0.2709C475.664 0.386916 369.587 53.2514 240.539 117.756C16.1263 229.943 5.83954 235.164 4.254 236.943C2.08837 239.379 0.464154 242.898 0.154779 245.799C-0.347955 250.478 1.66298 255.853 4.98876 258.792C6.34228 259.991 63.3059 288.608 241.119 377.515C467.311 490.592 475.548 494.652 478.023 494.884C484.675 495.464 490.592 491.984 493.608 485.719C494.691 483.437 494.807 482.896 494.768 479.531C494.768 476.476 494.575 475.51 493.763 473.731C493.26 472.57 459.19 421.176 418.12 359.533L343.406 247.5L418.12 135.468C459.19 73.8248 493.26 22.4299 493.801 21.2697C494.613 19.4521 494.768 18.5627 494.768 15.4689C494.768 12.1432 494.652 11.5631 493.608 9.28145C490.398 2.51387 483.94 -0.850584 476.283 0.2709Z" fill="#FF00FF"/>
</svg>
